<?xml version="1.0" encoding="UTF-8" standalone="no"?>
<svg width="18px" height="18px" viewBox="0 0 18 18" version="1.1" xmlns="http://www.w3.org/2000/svg" xmlns:xlink="http://www.w3.org/1999/xlink" xmlns:sketch="http://www.bohemiancoding.com/sketch/ns">
    <!-- Generator: Sketch 3.4 (15575) - http://www.bohemiancoding.com/sketch -->
    <title>slack_monochrome</title>
    <desc>Created with Sketch.</desc>
    <defs></defs>
    <g id="Page-1" stroke="none" stroke-width="1" fill="none" fill-rule="evenodd" sketch:type="MSPage">
        <g id="slack_monochrome" sketch:type="MSLayerGroup">
            <path d="M7.35385714,8.31885714 L8.12342857,10.6162857 L10.5102857,9.81685714 L9.74085714,7.51942857 L7.35385714,8.31885714" id="Fill-9" fill="#4990E2" sketch:type="MSShapeGroup"></path>
            <path d="M14.0118571,10.5972857 L12.8544286,10.9848571 L13.2555714,12.1824286 C13.418,12.6674286 13.1565714,13.1922857 12.6715714,13.3545714 C12.5661429,13.39 12.4587143,13.4052857 12.3537143,13.4024286 C11.9754286,13.3927143 11.6265714,13.1501429 11.4995714,12.7707143 L11.0984286,11.573 L8.71157143,12.3722857 L9.11271429,13.57 C9.27514286,14.0548571 9.01371429,14.5797143 8.52871429,14.7421429 C8.42328571,14.7774286 8.316,14.7927143 8.21085714,14.79 C7.83271429,14.7801429 7.48385714,14.5375714 7.35671429,14.1581429 L6.95557143,12.9604286 L5.798,13.3481429 C5.69242857,13.3834286 5.58514286,13.3987143 5.48,13.396 C5.10185714,13.3861429 4.753,13.1435714 4.62585714,12.7641429 C4.46342857,12.2791429 4.725,11.7544286 5.20985714,11.592 L6.36742857,11.2044286 L5.59785714,8.907 L4.44042857,9.29457143 C4.335,9.32985714 4.22757143,9.34514286 4.12242857,9.34242857 C3.74442857,9.33257143 3.39542857,9.09 3.26842857,8.71057143 C3.106,8.22557143 3.36742857,7.70085714 3.85242857,7.53842857 L5.00971429,7.15085714 L4.60857143,5.95314286 C4.44614286,5.46828571 4.70757143,4.94357143 5.19257143,4.781 C5.67757143,4.61871429 6.20228571,4.88014286 6.36457143,5.365 L6.76571429,6.56271429 L9.15257143,5.76342857 L8.75142857,4.56571429 C8.589,4.08071429 8.85057143,3.556 9.33542857,3.39357143 C9.82028571,3.23114286 10.3451429,3.49271429 10.5075714,3.97757143 L10.9087143,5.17528571 L12.0661429,4.78757143 C12.5512857,4.62528571 13.0758571,4.88671429 13.2382857,5.37157143 C13.4007143,5.85657143 13.1391429,6.38128571 12.6542857,6.54371429 L11.4968571,6.93128571 L12.2662857,9.22885714 L13.4238571,8.84114286 C13.9088571,8.67885714 14.4335714,8.94028571 14.5958571,9.42514286 C14.7582857,9.91 14.4968571,10.4348571 14.0118571,10.5972857 L14.0118571,10.5972857 Z M17.1165714,6.61242857 C15.275,0.474142857 12.615,-0.958142857 6.47671429,0.883428571 C0.338428571,2.725 -1.09385714,5.385 0.747714286,11.5232857 C2.58928571,17.6615714 5.24928571,19.0938571 11.3875714,17.2522857 C17.5258571,15.4107143 18.9581429,12.7507143 17.1165714,6.61242857 L17.1165714,6.61242857 Z" id="Fill-11" fill="#0A83F6" sketch:type="MSShapeGroup"></path>
        </g>
    </g>
</svg>