<?xml version="1.0" encoding="UTF-8" standalone="no"?>
<svg width="21px" height="24px" viewBox="0 0 21 24" version="1.1" xmlns="http://www.w3.org/2000/svg" xmlns:xlink="http://www.w3.org/1999/xlink" xmlns:sketch="http://www.bohemiancoding.com/sketch/ns">
    <!-- Generator: Sketch 3.2.2 (9983) - http://www.bohemiancoding.com/sketch -->
    <title>Note Icon</title>
    <desc>Created with Sketch.</desc>
    <defs></defs>
    <g id="Page-1" stroke="none" stroke-width="1" fill="none" fill-rule="evenodd" sketch:type="MSPage">
        <g id="fb-1-c" sketch:type="MSArtboardGroup" transform="translate(-664.000000, -777.000000)" fill="#FFFFFF">
            <g id="Contact" sketch:type="MSLayerGroup" transform="translate(240.000000, 109.000000)">
                <g id="Doc-Button-+-Life-Support-2-+-Documentation-+-Notes-Button-+-Note-Icon-+-Documentation" transform="translate(48.000000, 655.000000)" sketch:type="MSShapeGroup">
                    <g id="Notes-Button-+-Note-Icon-+-Documentation" transform="translate(353.000000, 0.000000)">
                        <path d="M23.3919214,36.6161454 C23.6375546,36.8802459 23.9563319,37 24.3231441,37 L42.6768559,37 C43.0447598,37 43.3635371,36.8802459 43.6080786,36.6161454 C43.8777293,36.375568 44,36.063352 44,35.7040898 L44,21.5677626 L36.5753275,21.5677626 C36.2085153,21.5677626 35.889738,21.4480086 35.6441048,21.183908 C35.3744541,20.9443999 35.2521834,20.6321839 35.2521834,20.2718524 L35.2521834,13 L24.3231441,13 C23.9563319,13 23.6375546,13.1197541 23.3919214,13.3838546 C23.1233624,13.624432 23,13.9355787 23,14.2959102 L23,35.7040898 C23,36.063352 23.1233624,36.375568 23.3919214,36.6161454 L23.3919214,36.6161454 Z M28.2445415,30.5674953 C28.2445415,30.4477412 28.2936681,30.3279872 28.3668122,30.2552793 C28.4399563,30.1836407 28.5633188,30.1355253 28.6855895,30.1355253 L38.3155022,30.1355253 C38.4377729,30.1355253 38.5600437,30.1836407 38.6342795,30.2552793 C38.7074236,30.3279872 38.7565502,30.4477412 38.7565502,30.5674953 L38.7565502,31.4314354 C38.7565502,31.5522588 38.7074236,31.6720128 38.6342795,31.7436514 C38.5600437,31.81529 38.4377729,31.8634055 38.3155022,31.8634055 L28.6855895,31.8634055 C28.5633188,31.8634055 28.4399563,31.81529 28.3668122,31.7436514 C28.2936681,31.6720128 28.2445415,31.5522588 28.2445415,31.4314354 L28.2445415,30.5674953 L28.2445415,30.5674953 Z M28.2445415,27.1363272 C28.2445415,27.0155039 28.2936681,26.8957498 28.3668122,26.8241112 C28.4399563,26.7514034 28.5633188,26.7043571 28.6855895,26.7043571 L38.3155022,26.7043571 C38.4377729,26.7043571 38.5600437,26.7514034 38.6342795,26.8241112 C38.7074236,26.8957498 38.7565502,27.0155039 38.7565502,27.1363272 L38.7565502,28.0002673 C38.7565502,28.1200214 38.7074236,28.2397755 38.6342795,28.3114141 C38.5600437,28.3841219 38.4377729,28.4322374 38.3155022,28.4322374 L28.6855895,28.4322374 C28.5633188,28.4322374 28.4399563,28.3841219 28.3668122,28.3114141 C28.2936681,28.2397755 28.2445415,28.1200214 28.2445415,28.0002673 L28.2445415,27.1363272 L28.2445415,27.1363272 Z M28.2445415,23.7040898 C28.2445415,23.5843357 28.2936681,23.4635124 28.3668122,23.3918738 C28.4399563,23.3202352 28.5633188,23.2721198 28.6855895,23.2721198 L38.3155022,23.2721198 C38.4377729,23.2721198 38.5600437,23.3202352 38.6342795,23.3918738 C38.7074236,23.4635124 38.7565502,23.5843357 38.7565502,23.7040898 L38.7565502,24.5680299 C38.7565502,24.687784 38.7074236,24.8075381 38.6342795,24.8802459 C38.5600437,24.9518845 38.4377729,25 38.3155022,25 L28.6855895,25 C28.5633188,25 28.4399563,24.9518845 28.3668122,24.8802459 C28.2936681,24.8075381 28.2445415,24.687784 28.2445415,24.5680299 L28.2445415,23.7040898 L28.2445415,23.7040898 Z M43.4606987,19.8644747 C43.3144105,19.6474205 43.1921397,19.5041433 43.0687773,19.3597968 L37.5065502,13.9120556 C37.3591703,13.7923015 37.2128821,13.6479551 37.0163755,13.528201 L37.0163755,19.8644747 L43.4606987,19.8644747 L43.4606987,19.8644747 Z" id="Note-Icon"></path>
                    </g>
                </g>
            </g>
        </g>
    </g>
</svg>