<?xml version="1.0" encoding="UTF-8" standalone="no"?>
<svg width="24px" height="24px" viewBox="0 0 24 24" version="1.1" xmlns="http://www.w3.org/2000/svg" xmlns:xlink="http://www.w3.org/1999/xlink" xmlns:sketch="http://www.bohemiancoding.com/sketch/ns">
    <!-- Generator: Sketch 3.2.2 (9983) - http://www.bohemiancoding.com/sketch -->
    <title>Life Support 2</title>
    <desc>Created with Sketch.</desc>
    <defs></defs>
    <g id="Page-1" stroke="none" stroke-width="1" fill="none" fill-rule="evenodd" sketch:type="MSPage">
        <g id="fb-1-c" sketch:type="MSArtboardGroup" transform="translate(-307.000000, -777.000000)" fill="#FFFFFF">
            <g id="Contact" sketch:type="MSLayerGroup" transform="translate(240.000000, 109.000000)">
                <g id="Doc-Button-+-Life-Support-2-+-Documentation-+-Notes-Button-+-Note-Icon-+-Documentation" transform="translate(48.000000, 655.000000)" sketch:type="MSShapeGroup">
                    <g id="Doc-Button-+-Life-Support-2-+-Documentation">
                        <path d="M22.5040321,33.4959679 C23.5840053,34.5759412 24.8553798,35.4163956 26.3192248,36.0408554 C27.8076632,36.6888394 29.3677434,37 30.9994654,37 C32.6076632,37 34.1677434,36.6888394 35.6561818,36.0408554 C37.1446202,35.4163956 38.4159947,34.5759412 39.4959679,33.4959679 C40.552417,32.4159947 41.4163956,31.1446202 42.0397861,29.6807752 C42.6888394,28.1923368 43,26.6322566 43,25.0005346 C43,23.3923368 42.6888394,21.8322566 42.0397861,20.3438182 C41.4163956,18.8564491 40.552417,17.5840053 39.4959679,16.5040321 C38.4159947,15.447583 37.1446202,14.5836044 35.6561818,13.9602139 C34.1677434,13.3122299 32.6076632,13 30.9994654,13 C29.3677434,13 27.8076632,13.3122299 26.3192248,13.9602139 C24.8553798,14.5836044 23.5840053,15.447583 22.5040321,16.5040321 C21.4240588,17.5840053 20.5836044,18.8564491 19.9591446,20.3438182 C19.3111606,21.8322566 19,23.3923368 19,25.0005346 C19,26.6322566 19.3111606,28.1923368 19.9591446,29.6807752 C20.5836044,31.1446202 21.4240588,32.4159947 22.5040321,33.4959679 L22.5040321,33.4959679 Z M21.9030965,20.1759412 L24.5196258,22.767877 C24.2555135,23.5120962 24.1357541,24.2563154 24.1357541,25.0005346 C24.1357541,25.768278 24.2555135,26.5124972 24.5196258,27.2556471 L21.9030965,29.8486523 C21.1118289,28.3120962 20.7033638,26.7038984 20.7033638,25.0005346 C20.7033638,23.3196258 21.1118289,21.7124972 21.9030965,20.1759412 L21.9030965,20.1759412 Z M30.9994654,19.8637113 C32.416262,19.8637113 33.6159947,20.3684117 34.6243261,21.3756739 C35.6315883,22.3840053 36.1362887,23.583738 36.1362887,25.0005346 C36.1362887,26.4397861 35.6315883,27.6405881 34.6243261,28.6478503 C33.6159947,29.6561818 32.416262,30.1598129 30.9994654,30.1598129 C29.5602139,30.1598129 28.3594119,29.6561818 27.3521497,28.6478503 C26.3438182,27.6405881 25.8401871,26.4397861 25.8401871,25.0005346 C25.8401871,23.583738 26.3438182,22.3840053 27.3521497,21.3756739 C28.3594119,20.3684117 29.5602139,19.8637113 30.9994654,19.8637113 L30.9994654,19.8637113 Z M28.7443529,31.4803742 C29.4875028,31.7444865 30.231722,31.8642459 30.9994654,31.8642459 C31.7436846,31.8642459 32.4879038,31.7444865 33.232123,31.4803742 L35.8240588,34.0969035 C34.2885721,34.8881711 32.6803742,35.2966362 30.9994654,35.2966362 C29.2961016,35.2966362 27.6879038,34.8881711 26.1513477,34.0969035 L28.7443529,31.4803742 L28.7443529,31.4803742 Z M30.9994654,14.7033638 C32.6803742,14.7033638 34.2885721,15.1118289 35.8240588,15.9276899 L33.232123,18.5442192 C32.4879038,18.2801069 31.7436846,18.1603475 30.9994654,18.1603475 C30.231722,18.1603475 29.4875028,18.2801069 28.7443529,18.5442192 L26.1513477,15.9276899 C27.6879038,15.1118289 29.2961016,14.7033638 30.9994654,14.7033638 L30.9994654,14.7033638 Z M37.8396525,25.0005346 C37.8396525,24.2563154 37.7198931,23.5120962 37.4557808,22.767877 L40.0723101,20.1759412 C40.8881711,21.7124972 41.2966362,23.3196258 41.2966362,25.0005346 C41.2966362,26.7038984 40.8881711,28.3120962 40.0723101,29.8486523 L37.4557808,27.2556471 C37.7198931,26.5124972 37.8396525,25.768278 37.8396525,25.0005346 L37.8396525,25.0005346 Z" id="Life-Support-2"></path>
                    </g>
                </g>
            </g>
        </g>
    </g>
</svg>